<?xml version="1.0" encoding="utf-8"?>
<!-- Generator: Adobe Illustrator 25.2.3, SVG Export Plug-In . SVG Version: 6.00 Build 0)  -->
<svg version="1.1" id="Capa_2" xmlns="http://www.w3.org/2000/svg" xmlns:xlink="http://www.w3.org/1999/xlink" x="0px" y="0px"
	 viewBox="0 0 1000 1200" style="enable-background:new 0 0 1000 1200;" xml:space="preserve">
<style type="text/css">
	.st0{stroke:#1D1D1B;stroke-miterlimit:10;}
	.st1{fill:none;stroke:#1D1D1B;stroke-miterlimit:10;}
</style>
<g>
	<g>
		<path class="st0" d="M492.2,572.05c90.98,0,167.62,61.36,190.83,144.94c48.17-48.57,77.93-115.43,77.93-189.24
			c0-148.44-120.33-268.77-268.77-268.77S223.44,379.32,223.44,527.76c0,73.81,29.76,140.67,77.93,189.24
			C324.58,633.41,401.22,572.05,492.2,572.05z M493.74,349.83c61.02,0,110.48,49.47,110.48,110.48S554.76,570.8,493.74,570.8
			s-110.48-49.47-110.48-110.48S432.72,349.83,493.74,349.83z"/>
	</g>
	<circle class="st1" cx="492.48" cy="529.19" r="268.49"/>
</g>
</svg>
